<?xml version="1.0" encoding="UTF-8" standalone="no"?>
<!DOCTYPE svg PUBLIC "-//W3C//DTD SVG 1.1//EN" "http://www.w3.org/Graphics/SVG/1.1/DTD/svg11.dtd">
<svg version="1.1" xmlns="http://www.w3.org/2000/svg" xmlns:xlink="http://www.w3.org/1999/xlink" preserveAspectRatio="xMidYMid meet" viewBox="174.73770491803265 106.70491803278685 156.86885245901652 185.8360655737705" width="126.1" height="150"><defs><path d="M192.95 161.39C192.95 166.14 189.09 170 184.34 170C179.59 170 175.74 166.14 175.74 161.39C175.74 156.64 179.59 152.79 184.34 152.79C189.09 152.79 192.95 156.64 192.95 161.39Z" id="bqs9kH4R"></path><path d="M238.2 116.31C238.2 121.06 234.34 124.92 229.59 124.92C224.84 124.92 220.98 121.06 220.98 116.31C220.98 111.56 224.84 107.7 229.59 107.7C234.34 107.7 238.2 111.56 238.2 116.31Z" id="f1dNj47Gvx"></path><path d="M284.26 161.39C284.26 166.14 280.41 170 275.66 170C270.91 170 267.05 166.14 267.05 161.39C267.05 156.64 270.91 152.79 275.66 152.79C280.41 152.79 284.26 156.64 284.26 161.39Z" id="chvGIZDJi"></path><path d="M192.95 243.44C192.95 248.19 189.09 252.05 184.34 252.05C179.59 252.05 175.74 248.19 175.74 243.44C175.74 238.69 179.59 234.84 184.34 234.84C189.09 234.84 192.95 238.69 192.95 243.44Z" id="a3MmKbE729"></path><path d="M284.26 239.75C284.26 244.5 280.41 248.36 275.66 248.36C270.91 248.36 267.05 244.5 267.05 239.75C267.05 235 270.91 231.15 275.66 231.15C280.41 231.15 284.26 235 284.26 239.75Z" id="m2JiGLwcli"></path><path d="M238.2 195.82C238.2 200.57 234.34 204.43 229.59 204.43C224.84 204.43 220.98 200.57 220.98 195.82C220.98 191.07 224.84 187.21 229.59 187.21C234.34 187.21 238.2 191.07 238.2 195.82Z" id="ci2uOMlrW"></path><path d="M328.61 195.82C328.61 200.57 324.75 204.43 320 204.43C315.25 204.43 311.39 200.57 311.39 195.82C311.39 191.07 315.25 187.21 320 187.21C324.75 187.21 328.61 191.07 328.61 195.82Z" id="bh7LoFIcK"></path><path d="M238.2 280.93C238.2 285.68 234.34 289.54 229.59 289.54C224.84 289.54 220.98 285.68 220.98 280.93C220.98 276.18 224.84 272.33 229.59 272.33C234.34 272.33 238.2 276.18 238.2 280.93Z" id="c4YkBFCoY"></path><path d="M228.2 280.93L323.11 280.93L323.11 283.56L228.2 283.56L228.2 280.93Z" id="lC6koIWX7"></path><path d="M328.61 280.93C328.61 285.68 324.75 289.54 320 289.54C315.25 289.54 311.39 285.68 311.39 280.93C311.39 276.18 315.25 272.33 320 272.33C324.75 272.33 328.61 276.18 328.61 280.93Z" id="b5UaPALRoZ"></path><path d="M228.2 194.51L323.11 194.51L323.11 197.13L228.2 197.13L228.2 194.51Z" id="b25CRrfk3O"></path><path d="M182.7 160.08L277.62 160.08L277.62 162.7L182.7 162.7L182.7 160.08Z" id="b39ewVwBhF"></path><path d="M184.34 158.23L228.86 113.71L230.71 115.57L186.2 160.08L184.34 158.23Z" id="d52iLMmVwT"></path><path d="M233.11 116.34L277.62 160.85L275.77 162.7L231.26 118.19L233.11 116.34Z" id="a89L5KibQo"></path><path d="M225.81 285.05L323.65 187.21L325.5 189.07L227.67 286.9L225.81 285.05Z" id="aipdf4UUK"></path><path d="M183.03 250.16L183.03 155.25L185.66 155.25L185.66 250.16L183.03 250.16Z" id="a2SijVzbz4"></path><path d="M275.66 247.7L275.66 152.79L278.28 152.79L278.28 247.7L275.66 247.7Z" id="l1hv7M2IKa"></path></defs><g><g><use xlink:href="#bqs9kH4R" opacity="1" fill="#000000" fill-opacity="1"></use><g><use xlink:href="#bqs9kH4R" opacity="1" fill-opacity="0" stroke="#000000" stroke-width="1" stroke-opacity="1"></use></g></g><g><use xlink:href="#f1dNj47Gvx" opacity="1" fill="#000000" fill-opacity="1"></use><g><use xlink:href="#f1dNj47Gvx" opacity="1" fill-opacity="0" stroke="#000000" stroke-width="1" stroke-opacity="1"></use></g></g><g><use xlink:href="#chvGIZDJi" opacity="1" fill="#000000" fill-opacity="1"></use><g><use xlink:href="#chvGIZDJi" opacity="1" fill-opacity="0" stroke="#000000" stroke-width="1" stroke-opacity="1"></use></g></g><g><use xlink:href="#a3MmKbE729" opacity="1" fill="#000000" fill-opacity="1"></use><g><use xlink:href="#a3MmKbE729" opacity="1" fill-opacity="0" stroke="#000000" stroke-width="1" stroke-opacity="1"></use></g></g><g><use xlink:href="#m2JiGLwcli" opacity="1" fill="#000000" fill-opacity="1"></use><g><use xlink:href="#m2JiGLwcli" opacity="1" fill-opacity="0" stroke="#000000" stroke-width="1" stroke-opacity="1"></use></g></g><g><use xlink:href="#ci2uOMlrW" opacity="1" fill="#000000" fill-opacity="1"></use><g><use xlink:href="#ci2uOMlrW" opacity="1" fill-opacity="0" stroke="#000000" stroke-width="1" stroke-opacity="1"></use></g></g><g><use xlink:href="#bh7LoFIcK" opacity="1" fill="#000000" fill-opacity="1"></use><g><use xlink:href="#bh7LoFIcK" opacity="1" fill-opacity="0" stroke="#000000" stroke-width="1" stroke-opacity="1"></use></g></g><g><use xlink:href="#c4YkBFCoY" opacity="1" fill="#000000" fill-opacity="1"></use><g><use xlink:href="#c4YkBFCoY" opacity="1" fill-opacity="0" stroke="#000000" stroke-width="1" stroke-opacity="1"></use></g></g><g><use xlink:href="#lC6koIWX7" opacity="1" fill="#000000" fill-opacity="1"></use></g><g><use xlink:href="#b5UaPALRoZ" opacity="1" fill="#000000" fill-opacity="1"></use><g><use xlink:href="#b5UaPALRoZ" opacity="1" fill-opacity="0" stroke="#000000" stroke-width="1" stroke-opacity="1"></use></g></g><g><use xlink:href="#b25CRrfk3O" opacity="1" fill="#000000" fill-opacity="1"></use></g><g><use xlink:href="#b39ewVwBhF" opacity="1" fill="#000000" fill-opacity="1"></use></g><g><use xlink:href="#d52iLMmVwT" opacity="1" fill="#000000" fill-opacity="1"></use></g><g><use xlink:href="#a89L5KibQo" opacity="1" fill="#000000" fill-opacity="1"></use></g><g><use xlink:href="#aipdf4UUK" opacity="1" fill="#000000" fill-opacity="1"></use></g><g><use xlink:href="#a2SijVzbz4" opacity="1" fill="#000000" fill-opacity="1"></use></g><g><use xlink:href="#l1hv7M2IKa" opacity="1" fill="#000000" fill-opacity="1"></use></g></g></svg>